# Blender 4.1.1
# www.blender.org
mtllib Parking Garage4.mtl
o Cube
v 100.000000 -0.250000 -100.000000
v 100.000000 0.250000 -100.000000
v 100.000000 -0.250000 100.000000
v 100.000000 0.250000 100.000000
v -100.000000 -0.250000 -100.000000
v -100.000000 0.250000 -100.000000
v -100.000000 -0.250000 100.000000
v -100.000000 0.250000 100.000000
vn -0.0000 -1.0000 -0.0000
vn -0.0000 -0.0000 1.0000
vn -1.0000 -0.0000 -0.0000
vn -0.0000 1.0000 -0.0000
vn 1.0000 -0.0000 -0.0000
vn -0.0000 -0.0000 -1.0000
vt 2.046291 -0.257901
vt 3.079939 -0.257901
vt 3.079939 0.735318
vt 2.046291 0.735318
vt 1.012644 0.735318
vt 2.046291 1.728537
vt 1.012644 1.728537
vt 1.012644 -2.244339
vt 2.046291 -2.244339
vt 2.046291 -1.251120
vt 1.012644 -1.251120
vt -0.021004 -0.257901
vt 1.012644 -0.257901
vt -0.021004 0.735318
s 0
usemtl Material
f 1/1/1 3/4/1 7/3/1 5/2/1
f 4/5/2 8/7/2 7/6/2 3/4/2
f 8/8/3 6/11/3 5/10/3 7/9/3
f 6/12/4 8/14/4 4/5/4 2/13/4
f 2/13/5 4/5/5 3/4/5 1/1/5
f 6/11/6 2/13/6 1/1/6 5/10/6
